<?xml version="1.0" encoding="UTF-8" standalone="no"?><!-- Generator: Gravit.io --><svg xmlns="http://www.w3.org/2000/svg" xmlns:xlink="http://www.w3.org/1999/xlink" style="isolation:isolate" viewBox="584 300 24 14" width="24pt" height="14pt"><defs><clipPath id="_clipPath_G4HU8a4Nm1mBxhap12Te3rKLWryyDQf4"><rect x="584" y="300" width="24" height="14"/></clipPath></defs><g clip-path="url(#_clipPath_G4HU8a4Nm1mBxhap12Te3rKLWryyDQf4)"><clipPath id="_clipPath_UwuTuq4gLzvcIhVqsjeeB3JHCuuScIU2"><rect x="584" y="300" width="24" height="14" transform="matrix(1,0,0,1,0,0)" fill="rgb(255,255,255)"/></clipPath><g clip-path="url(#_clipPath_UwuTuq4gLzvcIhVqsjeeB3JHCuuScIU2)"><g opacity="0.07"><path d=" M 606.105 300 L 585.895 300 C 584.821 300 584 300.758 584 301.75 L 584 312.25 C 584 313.242 584.884 314 585.895 314 L 606.105 314 C 607.179 314 608 313.242 608 312.25 L 608 301.75 C 608 300.758 607.116 300 606.105 300 Z " fill="rgb(0,0,0)"/></g><path d=" M 606.106 300.583 C 606.8 300.583 607.369 301.108 607.369 301.75 L 607.369 312.25 C 607.369 312.892 606.8 313.417 606.106 313.417 L 585.895 313.417 C 585.2 313.417 584.632 312.892 584.632 312.25 L 584.632 301.75 C 584.632 301.108 585.2 300.583 585.895 300.583 L 606.106 300.583 Z " fill="rgb(0,111,207)"/><path d=" M 589.666 305.99 L 590.155 307.084 L 589.181 307.084 L 589.666 305.99 Z  M 599.819 306.035 L 597.938 306.035 L 597.938 306.518 L 599.788 306.518 L 599.788 307.24 L 597.942 307.24 L 597.942 307.778 L 599.822 307.778 L 599.822 308.209 L 601.134 306.9 L 599.822 305.535 L 599.819 306.035 Z  M 590.937 304.67 L 593.46 304.67 L 594.02 305.799 L 594.539 304.667 L 601.089 304.667 L 601.77 305.361 L 602.474 304.667 L 605.482 304.667 L 603.259 306.914 L 605.459 309.147 L 602.406 309.147 L 601.725 308.453 L 601.015 309.147 L 590.335 309.147 L 590.023 308.453 L 589.309 308.453 L 588.996 309.147 L 586.526 309.147 L 588.602 304.667 L 590.768 304.667 L 590.937 304.67 Z  M 596.408 305.299 L 594.994 305.299 L 594.047 307.362 L 593.02 305.299 L 591.617 305.299 L 591.617 308.105 L 590.316 305.299 L 589.057 305.299 L 587.553 308.514 L 588.535 308.514 L 588.847 307.82 L 590.486 307.82 L 590.798 308.514 L 592.516 308.514 L 592.516 306.219 L 593.622 308.518 L 594.374 308.518 L 595.473 306.226 L 595.473 308.518 L 596.394 308.518 L 596.409 305.298 L 596.408 305.299 Z  M 602.307 306.914 L 603.906 305.299 L 602.755 305.299 L 601.744 306.306 L 600.766 305.299 L 597.043 305.299 L 597.043 308.518 L 600.713 308.518 L 601.732 307.504 L 602.71 308.518 L 603.894 308.518 L 602.308 306.914 L 602.307 306.914 Z " fill="rgb(255,255,255)"/></g></g></svg>